<svg width="48" height="48" viewBox="0 0 48 48" fill="none" xmlns="http://www.w3.org/2000/svg">
<path d="M40.8 4.8H36V2.4C36 1.76348 35.7471 1.15303 35.2971 0.702944C34.847 0.252856 34.2365 0 33.6 0C32.9635 0 32.353 0.252856 31.9029 0.702944C31.4529 1.15303 31.2 1.76348 31.2 2.4V4.8H16.8V2.4C16.8 1.76348 16.5471 1.15303 16.0971 0.702944C15.647 0.252856 15.0365 0 14.4 0C13.7635 0 13.153 0.252856 12.7029 0.702944C12.2529 1.15303 12 1.76348 12 2.4V4.8H7.2C5.29044 4.8 3.45909 5.55857 2.10883 6.90883C0.758569 8.25909 0 10.0904 0 12V40.8C0 42.7096 0.758569 44.5409 2.10883 45.8912C3.45909 47.2414 5.29044 48 7.2 48H40.8C42.7096 48 44.5409 47.2414 45.8912 45.8912C47.2414 44.5409 48 42.7096 48 40.8V12C48 10.0904 47.2414 8.25909 45.8912 6.90883C44.5409 5.55857 42.7096 4.8 40.8 4.8ZM43.2 40.8C43.2 41.4365 42.9471 42.047 42.4971 42.4971C42.047 42.9471 41.4365 43.2 40.8 43.2H7.2C6.56348 43.2 5.95303 42.9471 5.50294 42.4971C5.05286 42.047 4.8 41.4365 4.8 40.8V24H43.2V40.8ZM43.2 19.2H4.8V12C4.8 11.3635 5.05286 10.753 5.50294 10.3029C5.95303 9.85286 6.56348 9.6 7.2 9.6H12V12C12 12.6365 12.2529 13.247 12.7029 13.6971C13.153 14.1471 13.7635 14.4 14.4 14.4C15.0365 14.4 15.647 14.1471 16.0971 13.6971C16.5471 13.247 16.8 12.6365 16.8 12V9.6H31.2V12C31.2 12.6365 31.4529 13.247 31.9029 13.6971C32.353 14.1471 32.9635 14.4 33.6 14.4C34.2365 14.4 34.847 14.1471 35.2971 13.6971C35.7471 13.247 36 12.6365 36 12V9.6H40.8C41.4365 9.6 42.047 9.85286 42.4971 10.3029C42.9471 10.753 43.2 11.3635 43.2 12V19.2Z" fill="#CCCCCC"/>
</svg>
