<svg width="48" height="48" viewBox="0 0 48 48" fill="none" xmlns="http://www.w3.org/2000/svg">
<path d="M23.88 38.4C24.72 38.4 25.4304 38.1096 26.0112 37.5288C26.592 36.948 26.8816 36.2384 26.88 35.4C26.8784 34.5616 26.5888 33.8512 26.0112 33.2688C25.4336 32.6864 24.7232 32.3968 23.88 32.4C23.0368 32.4032 22.3272 32.6936 21.7512 33.2712C21.1752 33.8488 20.8848 34.5584 20.88 35.4C20.8752 36.2416 21.1656 36.952 21.7512 37.5312C22.3368 38.1104 23.0464 38.4 23.88 38.4ZM21.72 29.16H26.16C26.16 27.84 26.3104 26.8 26.6112 26.04C26.912 25.28 27.7616 24.24 29.16 22.92C30.2 21.88 31.02 20.8896 31.62 19.9488C32.22 19.008 32.52 17.8784 32.52 16.56C32.52 14.32 31.7 12.6 30.06 11.4C28.42 10.2 26.48 9.6 24.24 9.6C21.96 9.6 20.1104 10.2 18.6912 11.4C17.272 12.6 16.2816 14.04 15.72 15.72L19.68 17.28C19.88 16.56 20.3304 15.78 21.0312 14.94C21.732 14.1 22.8016 13.68 24.24 13.68C25.52 13.68 26.48 14.0304 27.12 14.7312C27.76 15.432 28.08 16.2016 28.08 17.04C28.08 17.84 27.84 18.5904 27.36 19.2912C26.88 19.992 26.28 20.6416 25.56 21.24C23.8 22.8 22.72 23.98 22.32 24.78C21.92 25.58 21.72 27.04 21.72 29.16ZM24 48C20.68 48 17.56 47.3704 14.64 46.1112C11.72 44.852 9.18 43.1416 7.02 40.98C4.86 38.8184 3.1504 36.2784 1.8912 33.36C0.632003 30.4416 0.00160304 27.3216 3.03797e-06 24C-0.00159696 20.6784 0.628803 17.5584 1.8912 14.64C3.1536 11.7216 4.8632 9.1816 7.02 7.02C9.1768 4.85841 11.7168 3.14881 14.64 1.89121C17.5632 0.633612 20.6832 0.00321212 24 1.21212e-05C27.3168 -0.00318787 30.4368 0.627212 33.36 1.89121C36.2832 3.15521 38.8232 4.86481 40.98 7.02C43.1368 9.1752 44.8472 11.7152 46.1112 14.64C47.3752 17.5648 48.0048 20.6848 48 24C47.9952 27.3152 47.3648 30.4352 46.1088 33.36C44.8528 36.2848 43.1432 38.8248 40.98 40.98C38.8168 43.1352 36.2768 44.8456 33.36 46.1112C30.4432 47.3768 27.3232 48.0064 24 48ZM24 43.2C29.36 43.2 33.9 41.34 37.62 37.62C41.34 33.9 43.2 29.36 43.2 24C43.2 18.64 41.34 14.1 37.62 10.38C33.9 6.66 29.36 4.80001 24 4.80001C18.64 4.80001 14.1 6.66 10.38 10.38C6.66 14.1 4.8 18.64 4.8 24C4.8 29.36 6.66 33.9 10.38 37.62C14.1 41.34 18.64 43.2 24 43.2Z" fill="#CCCCCC"/>
</svg>
