<svg width="48" height="48" viewBox="0 0 48 48" fill="none" xmlns="http://www.w3.org/2000/svg">
<path d="M39.568 1.80939e-08C41.7218 -0.000140977 43.7939 0.823746 45.3594 2.30265C46.9249 3.78155 47.8651 5.80336 47.987 7.95331L48 8.43061V39.5694C48 41.8053 47.1116 43.9497 45.5303 45.5307C43.949 47.1118 41.8043 48 39.568 48H8.43457C6.28037 48.0008 4.20755 47.1772 2.6415 45.6982C1.07545 44.2193 0.134933 42.1971 0.0129726 40.0467L0 39.5694V8.43061C0 6.19467 0.888366 4.05031 2.46967 2.46927C4.05097 0.888223 6.19568 1.80939e-08 8.43198 1.80939e-08H39.568ZM22.0529 18.1582L3.89168 18.1608V39.5694L3.90984 39.9844C4.01338 41.112 4.53461 42.1601 5.37125 42.9232C6.20788 43.6862 7.29953 44.1092 8.43198 44.109L22.0529 44.1063V18.1582ZM44.1057 33.7224L25.9445 33.725V44.1063H39.5654C40.7696 44.1063 41.9244 43.6281 42.7759 42.7767C43.6274 41.9254 44.1057 40.7708 44.1057 39.5668V33.7224ZM39.568 3.89105L25.9445 3.88846V29.8366L44.1057 29.834L44.1083 8.4332L44.0902 8.01816C43.9866 6.89064 43.4654 5.8425 42.6288 5.07943C41.7921 4.31636 40.7005 3.89343 39.568 3.89364M22.0529 3.88846L8.43198 3.89105L8.06097 3.90662C6.92537 4.00036 5.86655 4.5176 5.09468 5.35566C4.3228 6.19373 3.89432 7.29134 3.89428 8.43061L3.89168 14.2724H22.0529V3.88846Z" fill="#CCCCCC"/>
</svg>
