<svg width="56" height="56" viewBox="0 0 56 56" fill="none" xmlns="http://www.w3.org/2000/svg">
<path d="M34.7523 55.1C33.0857 55.1 31.419 54.8 29.7523 54.2C28.0857 53.5333 26.5523 52.6667 25.1523 51.6C24.3523 52.3333 23.5857 52.8333 22.8523 53.1C22.119 53.3667 21.1857 53.5 20.0523 53.5C17.119 53.5 14.4857 52.6 12.1523 50.8C9.88568 49 8.48568 46.4333 7.95234 43.1C6.81901 42.7 5.75234 42.1667 4.75234 41.5C3.81901 40.8333 2.95234 40.1 2.15234 39.3L1.95234 39.1C1.88568 39.0333 1.85234 38.9333 1.85234 38.8C1.11901 37.2 0.752344 35.6667 0.752344 34.2C0.752344 32.2667 1.05234 30.7 1.65234 29.5C2.31901 28.3 3.48568 27.0667 5.15234 25.8L5.05234 25.5C4.38568 24.3667 3.78568 23.2 3.25234 22C2.71901 20.7333 2.45234 19.4333 2.45234 18.1C2.45234 16.1667 3.18568 14.5 4.65234 13.1C6.18568 11.7 7.91901 10.9 9.85234 10.7C10.1857 9.43333 10.619 8.2 11.1523 6.99999C11.7523 5.73333 12.4523 4.6 13.2523 3.6C14.119 2.6 15.0857 1.8 16.1523 1.2C17.2857 0.599998 18.5523 0.299998 19.9523 0.299998C20.819 0.299998 21.6523 0.53333 22.4523 0.999995C23.2523 1.4 24.3857 2.1 25.8523 3.1C26.7857 2.16666 27.8523 1.43333 29.0523 0.899996C30.319 0.299996 31.5857 -4.29153e-06 32.8523 -4.29153e-06C33.9857 -4.29153e-06 35.0523 0.23333 36.0523 0.699999C37.0523 1.16666 37.919 1.73333 38.6523 2.39999C39.4523 3.06666 40.0857 3.8 40.5523 4.6C41.019 5.4 41.319 6.1 41.4523 6.7C42.2523 6.7 43.0857 6.83333 43.9523 7.1C44.8857 7.36667 45.719 7.7 46.4523 8.1C47.119 8.5 47.819 9.03333 48.5523 9.7C49.2857 10.3667 49.9857 11.1 50.6523 11.9C51.319 12.7 51.8523 13.5667 52.2523 14.5C52.719 15.3667 52.9523 16.2 52.9523 17C52.9523 17.9333 52.6857 18.8333 52.1523 19.7C51.619 20.5 51.019 21.2333 50.3523 21.9C52.0857 23.2333 53.419 24.7 54.3523 26.3C55.3523 27.8333 55.8523 29.7667 55.8523 32.1C55.8523 33.8333 55.3523 35.1333 54.3523 36C53.419 36.8667 52.1523 37.4667 50.5523 37.8C50.5523 37.9333 50.8857 38.5 51.5523 39.5C52.2857 40.5 52.6523 41.9667 52.6523 43.9C52.6523 44.9 52.319 45.8333 51.6523 46.7C51.0523 47.5 50.2523 48.2333 49.2523 48.9C48.2523 49.5 47.1523 49.9667 45.9523 50.3C44.7523 50.5667 43.5857 50.6333 42.4523 50.5C41.919 52.1667 40.8857 53.3667 39.3523 54.1C37.8857 54.7667 36.3523 55.1 34.7523 55.1ZM27.1523 37.8C28.0857 38.8 29.019 39.5 29.9523 39.9C30.8857 40.3 32.0857 40.5 33.5523 40.5C35.019 40.5 36.4523 40.1 37.8523 39.3C39.2523 38.4333 39.9523 37.1333 39.9523 35.4C39.9523 35 39.8857 34.7 39.7523 34.5C39.619 34.2333 39.2857 34.1 38.7523 34.1C38.3523 34.1 38.0857 34.2667 37.9523 34.6C37.819 34.8667 37.719 35.1667 37.6523 35.5C37.5857 35.6333 37.519 35.8 37.4523 36C37.4523 36.1333 37.3857 36.2667 37.2523 36.4C36.7857 37 36.219 37.4333 35.5523 37.7C34.8857 37.9 34.219 38 33.5523 38C32.019 38 30.7857 37.6667 29.8523 37C28.9857 36.2667 28.5523 35.0333 28.5523 33.3C28.5523 33.1667 28.619 32.9 28.7523 32.5C28.819 32.3667 28.9857 32.2 29.2523 32C29.5857 31.8 29.7523 31.6333 29.7523 31.5C29.7523 31.1 29.4523 30.7 28.8523 30.3C28.319 29.9 27.7857 29.7 27.2523 29.7C26.119 29.7667 25.319 29.9667 24.8523 30.3C24.4523 30.5667 24.2523 30.9667 24.2523 31.5C24.2523 31.6333 24.4523 31.8 24.8523 32C25.319 32.2 25.5857 32.3667 25.6523 32.5C25.7857 32.9 25.8523 33.1667 25.8523 33.3C25.8523 34.3667 25.619 35.2667 25.1523 36C24.7523 36.7333 23.9523 37.1667 22.7523 37.3C21.819 37.3667 21.119 37.3667 20.6523 37.3C20.1857 37.1667 19.819 37 19.5523 36.8C19.3523 36.5333 19.1523 36.2333 18.9523 35.9C18.7523 35.5667 18.519 35.2 18.2523 34.8C17.919 34.3333 17.4523 34.2667 16.8523 34.6C16.2523 34.9333 15.9523 35.3 15.9523 35.7C15.9523 35.8333 15.9523 36.0333 15.9523 36.3C16.019 36.5 16.119 36.6667 16.2523 36.8C16.519 37.1333 16.7857 37.5 17.0523 37.9C17.3857 38.2333 17.7857 38.5333 18.2523 38.8C18.719 39.0667 19.2857 39.2667 19.9523 39.4C20.619 39.5333 21.4523 39.6 22.4523 39.6C23.2523 39.6 24.0857 39.4333 24.9523 39.1C25.8857 38.7667 26.619 38.3333 27.1523 37.8ZM33.4523 23.3C33.4523 23.9 33.6857 24.3667 34.1523 24.7C34.619 25.0333 35.0857 25.2 35.5523 25.2C36.0857 25.2 36.5857 24.8667 37.0523 24.2C37.5857 23.4667 37.6523 22.9 37.2523 22.5L36.9523 22.6C36.5523 21.9333 36.0523 21.6 35.4523 21.6C34.919 21.6 34.4523 21.7667 34.0523 22.1C33.6523 22.3667 33.4523 22.7667 33.4523 23.3ZM18.0523 22.4C18.0523 22.9333 18.1857 23.3667 18.4523 23.7C18.719 24.0333 19.119 24.2 19.6523 24.2C20.1857 24.2 20.5857 24.0333 20.8523 23.7C21.119 23.3667 21.2523 22.9333 21.2523 22.4C21.2523 21.8667 21.019 21.5 20.5523 21.3C20.1523 21.0333 19.819 20.9 19.5523 20.9H18.7523C18.2857 21.2333 18.0523 21.7333 18.0523 22.4Z" fill="#0064FF"/>
</svg>
