<svg width="25" height="20" viewBox="0 0 25 20" fill="none" xmlns="http://www.w3.org/2000/svg">
<path d="M3.32791 20H21.6721C23.8872 20 25 18.8704 25 16.6326V3.3674C25 1.12957 23.8872 0 21.6721 0H3.32791C1.12362 0.00046351 0 1.11938 0 3.3674V16.6331C0 18.8816 1.12362 20 3.32791 20ZM3.35956 18.2516C2.29969 18.2516 1.70646 17.676 1.70646 16.5459V3.45547C1.70646 2.32543 2.29969 1.74975 3.35956 1.74975H8.0756V18.2516H3.35956ZM21.6404 1.74975C22.6895 1.74975 23.2935 2.32543 23.2935 3.45547V16.545C23.2935 17.675 22.6895 18.2507 21.6404 18.2507H9.73955V1.74929L21.6404 1.74975ZM6.04088 5.78044C6.35874 5.78044 6.64496 5.48703 6.64496 5.17185C6.64496 4.846 6.35874 4.56372 6.04088 4.56372H3.76198C3.44457 4.56372 3.16875 4.846 3.16875 5.17185C3.16875 5.48703 3.44457 5.78044 3.76243 5.78044H6.04088ZM6.04088 8.59394C6.35874 8.59394 6.64496 8.30054 6.64496 7.97469C6.64496 7.64884 6.35874 7.37676 6.04088 7.37676H3.76198C3.44457 7.37676 3.16875 7.64884 3.16875 7.97469C3.16875 8.30054 3.44457 8.59394 3.76243 8.59394H6.04088ZM6.04088 11.3968C6.35874 11.3968 6.64496 11.1252 6.64496 10.7989C6.64496 10.4735 6.35874 10.1907 6.04088 10.1907H3.76198C3.44457 10.1907 3.16875 10.4735 3.16875 10.7993C3.16875 11.1252 3.44457 11.3968 3.76243 11.3968H6.04088Z" fill="#888888"/>
</svg>
