<svg width="60" height="60" viewBox="0 0 60 60" fill="none" xmlns="http://www.w3.org/2000/svg">
<path d="M51 6H45V3C45 2.20435 44.6839 1.44129 44.1213 0.87868C43.5587 0.31607 42.7956 0 42 0C41.2044 0 40.4413 0.31607 39.8787 0.87868C39.3161 1.44129 39 2.20435 39 3V6H21V3C21 2.20435 20.6839 1.44129 20.1213 0.87868C19.5587 0.31607 18.7956 0 18 0C17.2044 0 16.4413 0.31607 15.8787 0.87868C15.3161 1.44129 15 2.20435 15 3V6H9C6.61305 6 4.32387 6.94821 2.63604 8.63604C0.948212 10.3239 0 12.6131 0 15V51C0 53.3869 0.948212 55.6761 2.63604 57.364C4.32387 59.0518 6.61305 60 9 60H51C53.3869 60 55.6761 59.0518 57.364 57.364C59.0518 55.6761 60 53.3869 60 51V15C60 12.6131 59.0518 10.3239 57.364 8.63604C55.6761 6.94821 53.3869 6 51 6ZM54 51C54 51.7957 53.6839 52.5587 53.1213 53.1213C52.5587 53.6839 51.7957 54 51 54H9C8.20435 54 7.44129 53.6839 6.87868 53.1213C6.31607 52.5587 6 51.7957 6 51V30H54V51ZM54 24H6V15C6 14.2044 6.31607 13.4413 6.87868 12.8787C7.44129 12.3161 8.20435 12 9 12H15V15C15 15.7956 15.3161 16.5587 15.8787 17.1213C16.4413 17.6839 17.2044 18 18 18C18.7956 18 19.5587 17.6839 20.1213 17.1213C20.6839 16.5587 21 15.7956 21 15V12H39V15C39 15.7956 39.3161 16.5587 39.8787 17.1213C40.4413 17.6839 41.2044 18 42 18C42.7956 18 43.5587 17.6839 44.1213 17.1213C44.6839 16.5587 45 15.7956 45 15V12H51C51.7957 12 52.5587 12.3161 53.1213 12.8787C53.6839 13.4413 54 14.2044 54 15V24Z" fill="#CCCCCC"/>
</svg>
