<svg width="60" height="60" viewBox="0 0 60 60" fill="none" xmlns="http://www.w3.org/2000/svg">
<path d="M29.85 48C30.9 48 31.788 47.637 32.514 46.911C33.24 46.185 33.602 45.298 33.6 44.25C33.598 43.202 33.236 42.314 32.514 41.586C31.792 40.858 30.904 40.496 29.85 40.5C28.796 40.504 27.909 40.867 27.189 41.589C26.469 42.311 26.106 43.198 26.1 44.25C26.094 45.302 26.457 46.19 27.189 46.914C27.921 47.638 28.808 48 29.85 48ZM27.15 36.45H32.7C32.7 34.8 32.888 33.5 33.264 32.55C33.64 31.6 34.702 30.3 36.45 28.65C37.75 27.35 38.775 26.112 39.525 24.936C40.275 23.76 40.65 22.348 40.65 20.7C40.65 17.9 39.625 15.75 37.575 14.25C35.525 12.75 33.1 12 30.3 12C27.45 12 25.138 12.75 23.364 14.25C21.59 15.75 20.352 17.55 19.65 19.65L24.6 21.6C24.85 20.7 25.413 19.725 26.289 18.675C27.165 17.625 28.502 17.1 30.3 17.1C31.9 17.1 33.1 17.538 33.9 18.414C34.7 19.29 35.1 20.252 35.1 21.3C35.1 22.3 34.8 23.238 34.2 24.114C33.6 24.99 32.85 25.802 31.95 26.55C29.75 28.5 28.4 29.975 27.9 30.975C27.4 31.975 27.15 33.8 27.15 36.45ZM30 59.9999C25.85 59.9999 21.95 59.2129 18.3 57.6389C14.65 56.0649 11.475 53.927 8.775 51.225C6.075 48.523 3.938 45.348 2.364 41.7C0.790004 38.052 0.0020038 34.152 3.79746e-06 30C-0.0019962 25.848 0.786004 21.948 2.364 18.3C3.942 14.652 6.079 11.477 8.775 8.775C11.471 6.07301 14.646 3.93601 18.3 2.36401C21.954 0.792015 25.854 0.00401515 30 1.51515e-05C34.146 -0.00398484 38.046 0.784015 41.7 2.36401C45.354 3.94401 48.529 6.08101 51.225 8.775C53.921 11.469 56.059 14.644 57.639 18.3C59.219 21.956 60.006 25.856 60 30C59.994 34.144 59.206 38.044 57.636 41.7C56.066 45.356 53.929 48.531 51.225 51.225C48.521 53.919 45.346 56.0569 41.7 57.6389C38.054 59.2209 34.154 60.0079 30 59.9999ZM30 53.9999C36.7 53.9999 42.375 51.6749 47.025 47.025C51.675 42.375 54 36.7 54 30C54 23.3 51.675 17.625 47.025 12.975C42.375 8.325 36.7 6.00001 30 6.00001C23.3 6.00001 17.625 8.325 12.975 12.975C8.325 17.625 6 23.3 6 30C6 36.7 8.325 42.375 12.975 47.025C17.625 51.6749 23.3 53.9999 30 53.9999Z" fill="#CCCCCC"/>
</svg>
