<svg width="60" height="60" viewBox="0 0 60 60" fill="none" xmlns="http://www.w3.org/2000/svg">
<path d="M49.46 2.26173e-08C52.1522 -0.000176222 54.7424 1.02968 56.6993 2.87831C58.6562 4.72694 59.8314 7.2542 59.9838 9.94163L60 10.5383V49.4617C60 52.2567 58.8895 54.9371 56.9129 56.9134C54.9363 58.8897 52.2554 60 49.46 60H10.5432C7.85046 60.001 5.25944 58.9715 3.30187 57.1228C1.34431 55.2741 0.168667 52.7464 0.0162157 50.0584L0 49.4617V10.5383C0 7.74334 1.11046 5.06289 3.08709 3.08659C5.06371 1.11028 7.7446 2.26173e-08 10.54 2.26173e-08H49.46ZM27.5661 22.6978L4.8646 22.701V49.4617L4.8873 49.9805C5.01673 51.3899 5.66826 52.7001 6.71406 53.654C7.75985 54.6078 9.12441 55.1365 10.54 55.1362L27.5661 55.1329V22.6978ZM55.1322 42.153L32.4307 42.1563V55.1329H49.4568C50.962 55.1329 52.4055 54.5351 53.4699 53.4709C54.5342 52.4068 55.1322 50.9634 55.1322 49.4585V42.153ZM49.46 4.86381L32.4307 4.86057V37.2957L55.1322 37.2925L55.1354 10.5415L55.1127 10.0227C54.9833 8.6133 54.3317 7.30313 53.2859 6.34929C52.2401 5.39545 50.8756 4.86679 49.46 4.86706M27.5661 4.86057L10.54 4.86381L10.0762 4.88327C8.65672 5.00045 7.33319 5.647 6.36835 6.69458C5.40351 7.74216 4.8679 9.11417 4.86784 10.5383L4.8646 17.8405H27.5661V4.86057Z" fill="#CCCCCC"/>
</svg>
