<svg width="22" height="20" viewBox="0 0 22 20" fill="none" xmlns="http://www.w3.org/2000/svg">
<path d="M2.92856 20H19.0714C21.0208 20 22 18.8704 22 16.6326V3.3674C22 1.12957 21.0208 0 19.0714 0H2.92856C0.988786 0.00046351 0 1.11938 0 3.3674V16.6331C0 18.8816 0.988786 20 2.92856 20ZM2.95641 18.2516C2.02373 18.2516 1.50168 17.676 1.50168 16.5459V3.45547C1.50168 2.32543 2.02373 1.74975 2.95641 1.74975H7.10653V18.2516H2.95641ZM19.0436 1.74975C19.9667 1.74975 20.4983 2.32543 20.4983 3.45547V16.545C20.4983 17.675 19.9667 18.2507 19.0436 18.2507H8.57081V1.74929L19.0436 1.74975ZM5.31597 5.78044C5.5957 5.78044 5.84757 5.48703 5.84757 5.17185C5.84757 4.846 5.5957 4.56372 5.31597 4.56372H3.31054C3.03122 4.56372 2.7885 4.846 2.7885 5.17185C2.7885 5.48703 3.03122 5.78044 3.31094 5.78044H5.31597ZM5.31597 8.59394C5.5957 8.59394 5.84757 8.30054 5.84757 7.97469C5.84757 7.64884 5.5957 7.37676 5.31597 7.37676H3.31054C3.03122 7.37676 2.7885 7.64884 2.7885 7.97469C2.7885 8.30054 3.03122 8.59394 3.31094 8.59394H5.31597ZM5.31597 11.3968C5.5957 11.3968 5.84757 11.1252 5.84757 10.7989C5.84757 10.4735 5.5957 10.1907 5.31597 10.1907H3.31054C3.03122 10.1907 2.7885 10.4735 2.7885 10.7993C2.7885 11.1252 3.03122 11.3968 3.31094 11.3968H5.31597Z" fill="#CCCCCC"/>
</svg>
